<?xml version="1.0" standalone="no"?>
<!DOCTYPE svg PUBLIC "-//W3C//DTD SVG 20010904//EN"
 "http://www.w3.org/TR/2001/REC-SVG-20010904/DTD/svg10.dtd">
<svg version="1.0" xmlns="http://www.w3.org/2000/svg"
 width="146.000000pt" height="188.000000pt" viewBox="0 0 146.000000 188.000000"
 preserveAspectRatio="xMidYMid meet">
<metadata>
Created by potrace 1.10, written by Peter Selinger 2001-2011
</metadata>
<g transform="translate(0.000000,188.000000) scale(0.100000,-0.100000)"
fill="#000000" stroke="none">
<path d="M1333 1858 c8 -31 -16 -82 -51 -106 -18 -13 -133 -49 -293 -91 -487
-129 -779 -222 -878 -278 -32 -19 -49 -38 -66 -77 -22 -46 -45 -169 -45 -233
l0 -26 23 20 c82 76 304 156 637 228 491 107 617 146 715 221 60 45 78 86 73
157 -7 85 -27 143 -59 178 -33 35 -64 39 -56 7z"/>
<path d="M1410 1485 c-81 -84 -244 -144 -610 -225 -443 -98 -587 -138 -710
-200 -94 -48 -95 -50 -83 -198 11 -135 30 -195 75 -226 28 -20 34 -13 14 16
-28 40 -21 82 23 121 35 31 134 78 164 76 7 0 -15 -10 -48 -23 -89 -34 -95
-37 -95 -47 0 -12 45 -34 110 -53 30 -9 161 -34 292 -57 131 -22 258 -46 281
-53 39 -12 48 -11 80 6 69 35 39 75 -84 108 -46 12 -165 37 -264 55 -99 17
-198 40 -219 50 l-40 19 30 8 c16 5 132 26 258 48 126 22 256 47 290 56 358
90 541 234 576 454 18 114 14 121 -40 65z"/>
<path d="M102 748 c-40 -40 18 -149 89 -168 77 -21 183 -39 274 -46 114 -8
129 -17 63 -33 -145 -37 -203 -60 -240 -98 -35 -36 -77 -113 -78 -141 0 -8 19
-1 53 17 62 35 168 67 378 116 257 59 399 112 420 159 16 35 -10 77 -70 109
l-50 28 2 -28 c2 -22 -5 -31 -38 -49 -47 -26 -101 -42 -92 -27 8 12 8 12 -289
63 -235 41 -343 67 -379 94 -25 19 -28 19 -43 4z m683 -178 c-11 -5 -27 -9
-35 -9 -9 0 -8 4 5 9 11 5 27 9 35 9 9 0 8 -4 -5 -9z m-58 -16 c-3 -3 -12 -4
-19 -1 -8 3 -5 6 6 6 11 1 17 -2 13 -5z m-52 -13 c-11 -5 -36 -11 -55 -14 -35
-6 -34 -6 5 8 43 14 84 19 50 6z"/>
<path d="M1018 485 c-86 -45 -174 -73 -399 -125 -255 -60 -323 -82 -361 -120
-38 -38 -53 -102 -39 -165 16 -72 27 -86 40 -52 19 50 102 84 371 153 276 70
380 118 415 191 16 33 34 144 24 143 -2 -1 -25 -12 -51 -25z"/>
</g>
</svg>
